#!OML:ASF F:\VICON\USERDATA\INSTALL\rory3\rory3.ASF
:FULLY-SPECIFIED
:DEGREES
41
root -0.11556551794089387 17.696200849358124 32.510045254595866 -0.7252585597069556 -5.895906836499175 -7.534011511145584
lfemur -30.60402567124205 -4.885571809853067 -9.019275392698027
ltibia 34.14827594880532
lfoot -4.979837417163777 3.967425453301775
ltoes -2.246500827550756
rfemur 5.39952708631812 4.805111167312655 36.47857308309948
rtibia 47.21684062167407
rfoot -15.32337247403919 5.23364862161762
rtoes 11.577073594112914
lowerback nan 2.0738966188041092 7.149983843428775
upperback -0.1275591643406218 4.109758316781078 1.717980425552355
thorax -4.530684039243799 2.0593146834755083 -2.9974493325035345
lowerneck -16.936796123958175 -2.7645880533830267 -1.0817081434885376
upperneck 19.897743830330374 -3.7466435915681493 1.710884072119152
head 8.913896083005566 -1.6503087952914304 0.4047140658470693
lclavicle -1.3414995847617157e-14 -1.3356525868671205e-14
lhumerus -42.323492913567804 15.95517995355422 76.09538572074548
lradius 12.301163287227803
lwrist 1.4245901454732715
lhand -26.77288694844429 19.2532248350262
lfingers nan
lthumb 0.0021668381380153257 49.0900344919767
rclavicle -1.228151514479215e-14 -1.1931624615130329e-14
rhumerus -17.509049930533564 -4.563853159371199 -84.25159241960543
rradius 32.1278200043332
rwrist -1.0820924636861253
rhand -18.55369115293744 nan
rfingers nan
rthumb 7.537471247473794 -8.921335924006787
42
root -0.04977533653987121 17.681557036565138 33.208679679314535 -1.4585638078459957 -6.193184469750001 -7.235291204640907
lfemur -30.485998938616305 -4.357221936445322 -10.564688949939114
ltibia 40.14516708966445
lfoot -2.053762440200531 -1.2652439003521334
ltoes -2.3852919795213574
rfemur 6.45178503345797 4.741709282002658 35.17039068041937
rtibia 51.79729330746564
rfoot -12.095919702270725 7.394378822330436
rtoes 10.778398615963908
lowerback nan 2.1283249748272843 6.701893676887531
upperback -0.2915991413453404 4.2366693386859255 1.6093161619785732
thorax -5.01589460727656 2.082290913611794 -2.755240339397189
lowerneck -16.023679283757723 -3.0698211591523803 -1.2942370348360654
upperneck 19.887766792755702 -4.189311278575993 1.6736556911746152
head 8.824949011381426 -1.8591420048445673 0.35439474135094046
lclavicle 2.1112191183815993e-14 2.2503290093582256e-15
lhumerus -42.641670886518135 16.439044298706097 75.33953615637517
lradius 11.801454958975777
lwrist -1.940817197626071
lhand -26.045094368560882 19.696776297032287
lfingers nan
lthumb 0.6489348842717257 49.48181913429853
rclavicle 2.2536649751807735e-14 4.370271187814259e-15
rhumerus -18.877622707795304 -5.642725265144055 -83.74371847460682
rradius 32.97093893100539
rwrist -0.889208419451597
rhand -18.310803930087154 nan
rfingers nan
rthumb 7.771801683239908 -9.04608345497953
43
root 0.02730639613150787 17.6999620617009 33.669003698926176 -2.5518896410212695 -5.1347407221863755 -5.366300719539074
lfemur -28.77879310860895 -5.514818875779352 -13.115387770663972
ltibia 43.69237668258942
lfoot -1.078912788013886 -7.0953205774781045
ltoes -3.4423573348912586
rfemur 5.845938293478774 3.8089581308785863 32.1801283909241
rtibia 59.486211027089254
rfoot -4.833326200795126 8.695032862438774
rtoes 11.657686918685263
lowerback nan 1.9142909759893132 4.638514450239182
upperback -0.2914215832138441 3.743644670497348 0.9537228220856289
thorax -5.139521376101035 1.8612431065361026 -1.9944707324085666
lowerneck -15.276526997925895 -3.1765392190622674 -1.732381872609355
upperneck 20.363907175393997 -4.466730907142361 2.2079120937659145
head 8.955401827496868 -1.9310689305680715 0.5821044288673646
lclavicle 2.1485806913900397e-14 1.6733118282550626e-14
lhumerus -42.20030322068103 16.24138294423651 74.88198810012373
lradius 12.013641133694355
lwrist -2.0235390243580307
lhand -24.28142899664357 23.340372065864486
lfingers nan
lthumb 2.2931055567050027 53.081696449552815
rclavicle 2.2585999449017954e-14 1.8969163787879685e-14
rhumerus -19.890695349006975 -8.062883626290185 -83.31416090752502
rradius 31.66410844457954
rwrist -0.06413095742406227
rhand -18.969871452598465 nan
rfingers nan
rthumb 7.136682625221707 -7.580999038574437
44
root 0.09821524265122666 17.71288149973097 34.71655639332959 -3.48488555630669 -4.8881161655531224 -4.864615384986115
lfemur -26.605874495383794 -4.021859121054341 -14.8601852561849
ltibia 46.9555245309508
lfoot -1.1702050095807763 -7.381360146709304
ltoes -5.694062310245393
rfemur 3.277329863293957 2.154781015874299 29.663416313545213
rtibia 68.82244196048617
rfoot 5.873319690396714 10.184027708522928
rtoes 10.932127663632528
lowerback nan 1.810567504930314 4.257701596333953
upperback 0.01612990924190956 3.6393094989199675 0.6215980165336593
thorax -4.836394416090604 1.7671259136050912 -1.9895625232575964
lowerneck -14.88846053738024 -3.1816408137454055 -1.849270575242654
upperneck 20.3473469349015 -4.613362541054811 2.620572986776791
head 8.907026033964797 -1.9420906430568572 0.7492812349272396
lclavicle 2.4528489075758997e-14 -9.327023459434255e-15
lhumerus -41.69187874139935 16.378693250076665 74.46697354466666
lradius 13.287179665198133
lwrist -0.21705031468086933
lhand -26.384901628938323 28.14851593716755
lfingers nan
lthumb 0.22451379328861876 57.802737650710725
rclavicle 2.4227017511077483e-14 -7.575729055619749e-15
rhumerus -21.11040435985402 -11.107593865071738 -82.80972745312148
rradius 30.953148660358508
rwrist 0.7082630116019897
rhand -18.58222751970171 nan
rfingers nan
rthumb 7.498652575070397 -8.695421402281426
45
root 0.16823866156261374 17.75390379830697 35.17529800992306 -4.0529683529604075 -5.542056969602811 -4.100630613707867
lfemur -24.315401523451797 -3.0777677913723895 -16.433992459782495
ltibia 48.96006196799858
lfoot -2.203517262327657 -7.470263040958171
ltoes -2.4654225217838546
rfemur -1.2754646899839681 2.0108508640255893 27.915637375418513
rtibia 79.05858701266614
rfoot 14.596448823606076 8.505830291367717
rtoes 20.032963595238286
lowerback nan 1.866384818125196 3.192503375708987
upperback 0.27846701811769814 3.6043517291431195 0.6379260055775898
thorax -5.041486431200578 1.794191297229132 -1.3235070622540381
lowerneck -15.854253189768873 -3.1395100073092794 -1.8317610752962576
upperneck 20.49450316326014 -4.465836910734794 2.340534054343549
head 9.074789077936709 -1.9097962674443774 0.6204342811389688
lclavicle -1.216874038938393e-14 -1.5929146071612516e-14
lhumerus -41.093664601181175 14.294888783098425 75.79885005091242
lradius 16.285197912285508
lwrist 3.7103446262615547
lhand -27.892505493756858 26.873866897541873
lfingers nan
lthumb -1.2123196053494039 56.646679487062784
rclavicle -1.1890214117474695e-14 -1.3977864693970331e-14
rhumerus -22.068444522586738 -12.379567017922039 -82.52065416774937
rradius 30.426399288880578
rwrist 0.7912480680599443
rhand -17.53061237093383 nan
rfingers nan
rthumb 8.482052207818615 -8.4866455693489
